<svg width="36" height="34" viewBox="0 0 36 34" fill="none" xmlns="http://www.w3.org/2000/svg">
<g filter="url(#filter0_d_452_68)">
<path d="M12.1244 6C13.9206 2.88889 18.4111 2.88889 20.2073 6L28.2902 20C30.0864 23.1111 27.8411 27 24.2487 27H8.0829C4.4905 27 2.24525 23.1111 4.04145 20L12.1244 6Z" fill="#3A85F4"/>
<path d="M17.1659 11C17.1659 10.4477 16.7181 10 16.1659 10C15.6136 10 15.1659 10.4477 15.1659 11L15.1658 17.6667C15.1658 18.2189 15.6135 18.6667 16.1658 18.6667C16.7181 18.6667 17.1658 18.219 17.1658 17.6667L17.1659 11ZM17.1658 21.3041C17.1657 20.7518 16.7179 20.3042 16.1656 20.3043C15.6133 20.3044 15.1657 20.7521 15.1658 21.3044L15.1659 21.5557C15.166 22.108 15.6138 22.5557 16.166 22.5556C16.7183 22.5555 17.166 22.1077 17.1659 21.5554L17.1658 21.3041ZM19.3412 6.5L27.4241 20.5C28.8354 22.9444 27.0713 26 24.2487 26H8.0829C5.2603 26 3.49618 22.9444 4.90748 20.5L12.9904 6.5C14.4017 4.05556 17.9299 4.05556 19.3412 6.5Z" stroke="white" stroke-width="2" stroke-linecap="round" stroke-linejoin="round"/>
</g>
<defs>
<filter id="filter0_d_452_68" x="0.29816" y="0.555393" width="34.8464" height="32.6668" filterUnits="userSpaceOnUse" color-interpolation-filters="sRGB">
<feFlood flood-opacity="0" result="BackgroundImageFix"/>
<feColorMatrix in="SourceAlpha" type="matrix" values="0 0 0 0 0 0 0 0 0 0 0 0 0 0 0 0 0 0 127 0" result="hardAlpha"/>
<feOffset dx="1.55556" dy="1.55556"/>
<feGaussianBlur stdDeviation="2.33333"/>
<feComposite in2="hardAlpha" operator="out"/>
<feColorMatrix type="matrix" values="0 0 0 0 0 0 0 0 0 0 0 0 0 0 0 0 0 0 0.25 0"/>
<feBlend mode="normal" in2="BackgroundImageFix" result="effect1_dropShadow_452_68"/>
<feBlend mode="normal" in="SourceGraphic" in2="effect1_dropShadow_452_68" result="shape"/>
</filter>
</defs>
</svg>
