<svg width="34" height="34" viewBox="0 0 34 34" fill="none" xmlns="http://www.w3.org/2000/svg">
<path d="M17 21.5331C19.5037 21.5331 21.5333 19.5034 21.5333 16.9997C21.5333 14.496 19.5037 12.4664 17 12.4664C14.4963 12.4664 12.4667 14.496 12.4667 16.9997C12.4667 19.5034 14.4963 21.5331 17 21.5331Z" fill="black"/>
<path d="M12.75 2.8335L10.1575 5.66683H5.66668C4.10834 5.66683 2.83334 6.94183 2.83334 8.50016V25.5002C2.83334 27.0585 4.10834 28.3335 5.66668 28.3335H28.3333C29.8917 28.3335 31.1667 27.0585 31.1667 25.5002V8.50016C31.1667 6.94183 29.8917 5.66683 28.3333 5.66683H23.8425L21.25 2.8335H12.75ZM17 24.0835C13.09 24.0835 9.91668 20.9102 9.91668 17.0002C9.91668 13.0902 13.09 9.91683 17 9.91683C20.91 9.91683 24.0833 13.0902 24.0833 17.0002C24.0833 20.9102 20.91 24.0835 17 24.0835Z" fill="#222222"/>
<path d="M10 27.5C10 30.5376 7.53757 33 4.5 33C1.46243 33 -1 30.5376 -1 27.5C-1 24.4624 1.46243 22 4.5 22C7.53757 22 10 24.4624 10 27.5Z" fill="#222222"/>
<path d="M4.76855 27.1147H6.73437V27.7324H4.76855V30.3159H4.16162V27.7324H2.22802V27.1147H4.16162V24.6226H4.76855V27.1147Z" fill="#FAFAFA"/>
</svg>
