<svg width="28" height="28" viewBox="0 0 28 28" fill="none" xmlns="http://www.w3.org/2000/svg">
<circle cx="14" cy="14" r="13.9" fill="white" stroke="black" stroke-width="0.2"/>
<path d="M14.2035 21.0751L14.2034 21.0748L12.6504 16.4157L12.5317 16.0599L12.1758 15.9413L7.51676 14.3898L7.51669 14.3898C7.38438 14.3458 7.28664 14.3015 7.21652 14.2627C7.2817 14.2162 7.37365 14.1611 7.49993 14.1022L7.50017 14.1021L20.4172 8.07445C20.4173 8.07442 20.4174 8.07438 20.4174 8.07434C20.4815 8.04447 20.5399 8.02013 20.5927 8.00054C20.5731 8.05335 20.5488 8.11185 20.5189 8.17605C20.5188 8.17619 20.5188 8.17633 20.5187 8.17647L14.4916 21.0923C14.4916 21.0924 14.4915 21.0926 14.4914 21.0928C14.4324 21.2187 14.3772 21.3104 14.3306 21.3755C14.2918 21.3053 14.2476 21.2075 14.2035 21.0751Z" fill="black" stroke="black" stroke-width="1.5"/>
</svg>
