<svg width="28" height="28" viewBox="0 0 28 28" fill="none" xmlns="http://www.w3.org/2000/svg">
<circle cx="14" cy="14" r="13.9" fill="white" stroke="black" stroke-width="0.2"/>
<path d="M14.2032 21.0751L14.2032 21.0748L12.6501 16.4157L12.5315 16.0599L12.1756 15.9413L7.51651 14.3898L7.51645 14.3898C7.38413 14.3458 7.2864 14.3015 7.21628 14.2627C7.28145 14.2162 7.37341 14.1611 7.49969 14.1022L7.49993 14.1021L20.417 8.07445C20.417 8.07442 20.4171 8.07438 20.4172 8.07434C20.4813 8.04447 20.5397 8.02013 20.5924 8.00054C20.5729 8.05335 20.5485 8.11185 20.5186 8.17605C20.5186 8.17619 20.5185 8.17633 20.5185 8.17647L14.4914 21.0923C14.4913 21.0924 14.4912 21.0926 14.4911 21.0928C14.4322 21.2187 14.377 21.3104 14.3304 21.3755C14.2916 21.3053 14.2473 21.2075 14.2032 21.0751Z" fill="#FAFAFA" stroke="black" stroke-width="1.5"/>
</svg>
