<svg width="20" height="20" viewBox="0 0 20 20" fill="none" xmlns="http://www.w3.org/2000/svg">
<path d="M20 10C20 14.0694 17.5693 17.5711 14.0806 19.1323C14.0185 19.1601 13.9561 19.1872 13.8933 19.2138C12.9339 19.6197 11.898 19.8801 10.8132 19.9674C10.545 19.989 10.2738 20 10 20C9.57486 20 9.15592 19.9735 8.74474 19.922C8.50327 19.8917 8.26448 19.8529 8.02868 19.8058C7.25119 19.6503 6.50626 19.4047 5.80523 19.0803C4.54222 18.4959 3.42175 17.6557 2.51027 16.6262C2.50449 16.6197 2.49872 16.6131 2.49296 16.6066C2.44333 16.5502 2.39433 16.4933 2.34596 16.4359C0.882 14.6966 0 12.4513 0 10C0 4.47716 4.47715 0 10 0C15.5229 0 20 4.47716 20 10Z" fill="white"/>
<path d="M15.368 12.9945L8.37262 11.0422C8.62206 10.8166 8.55447 10.2354 8.37262 9.7404L10.8183 3.47706C12.5265 3.63975 15.2108 5.02256 15.368 12.9945Z" fill="white"/>
<path d="M15.438 13.1378L13.1674 16.6283C13.4168 16.4027 13.9062 10.8047 13.7243 10.3098C13.8382 7.64653 12.8602 6.12573 10.7131 3.40249C12.4213 3.56518 15.2807 5.1659 15.438 13.1378Z" fill="white"/>
<path d="M13.2172 6.32402C13.2172 7.85143 11.6342 9.00831 9.88217 9.00831C8.13014 9.00831 6.70984 7.77009 6.70984 6.24268C6.70984 4.45315 7.27923 3.63974 9.55681 3.39571C12.2411 3.23302 13.1359 4.45315 13.2172 6.32402Z" fill="white"/>
<path d="M8.47068 4.56048C8.47068 4.86959 7.84498 5.91713 7.49458 5.91713C7.14417 5.91713 6.81542 5.83233 6.7625 5.42908C6.71235 5.04697 7.20301 3.90042 7.81995 3.88358C8.35761 3.8689 8.45441 4.18186 8.47068 4.56048Z" fill="white"/>
<path d="M6.82929 5.34793C6.09718 5.91732 4.4704 6.97476 5.93449 10.2284C6.01865 10.4155 6.16968 10.4465 6.17848 10.1471C6.19454 9.60129 6.31537 9.24937 6.50395 9.04845C6.74798 9.82174 8.21213 9.74039 8.78153 9.65905C8.93432 9.63722 8.96394 9.3494 8.90602 9.14745C8.83471 8.89888 8.43564 8.75528 8.25528 8.25269C8.08191 7.76959 7.95783 6.74236 7.92991 6.46316C7.9104 6.26807 8.03369 5.92214 7.9299 5.81242C7.68586 5.55445 7.06876 5.16169 6.82929 5.34793Z" fill="white"/>
<path d="M10.6141 5.67329C10.6141 6.16745 10.2135 6.56805 9.71935 6.56805C9.22518 6.56805 8.82458 6.16745 8.82458 5.67329C8.82458 5.17912 9.22518 4.77852 9.71935 4.77852C10.2135 4.77852 10.6141 5.17912 10.6141 5.67329Z" fill="white"/>
<path d="M10.1261 5.26657C10.1261 5.35642 10.0533 5.42926 9.9634 5.42926C9.87355 5.42926 9.80072 5.35642 9.80072 5.26657C9.80072 5.17672 9.87355 5.10389 9.9634 5.10389C10.0533 5.10389 10.1261 5.17672 10.1261 5.26657Z" fill="white"/>
<path d="M7.50943 5.88998C7.55817 5.96473 7.52052 6.07564 7.42534 6.13771C7.33015 6.19978 7.21347 6.1895 7.16473 6.11476C7.11599 6.04001 7.15364 5.9291 7.24882 5.86703C7.344 5.80496 7.46068 5.81523 7.50943 5.88998Z" fill="white"/>
<path d="M11.1011 7.03993C11.1401 6.959 11.2374 6.92505 11.3183 6.96409L12.0509 7.31752C12.1318 7.35656 12.1658 7.45381 12.1267 7.53474L11.9147 7.97431C11.8756 8.05523 11.7784 8.08919 11.6975 8.05015L10.9648 7.69671C10.8839 7.65767 10.85 7.56042 10.889 7.4795L11.1011 7.03993Z" fill="white"/>
<path d="M14.6222 6.09431C14.5743 6.32106 14.4057 6.50258 14.1752 6.52719C13.4565 6.60393 12.1882 6.37174 11.4436 6.00002C11.2458 5.90128 11.1341 5.69973 11.0849 5.48418C10.9826 5.03549 10.7823 4.60295 10.2491 4.37179C9.40375 4.00535 8.71697 4.47622 8.34124 4.44285C7.96552 4.40947 7.18076 4.00535 7.21547 3.61646C7.40213 1.52482 10.7372 0.792735 12.6893 1.60616C14.4173 2.32616 14.9359 4.61137 14.6222 6.09431Z" fill="white"/>
<path fill-rule="evenodd" clip-rule="evenodd" d="M6.76746 5.39566C6.76573 5.40651 6.76414 5.41812 6.7625 5.42908C6.76139 5.42049 6.76046 5.4108 6.75989 5.40146L6.76746 5.39566ZM8.59883 8.77266C8.62628 8.80032 8.6533 8.82648 8.6793 8.85165L8.68994 8.86194C8.69622 8.86803 8.70243 8.87406 8.70857 8.88004C8.80224 8.97131 8.87851 9.05157 8.90602 9.14745C8.96395 9.3494 8.93432 9.63722 8.78153 9.65905C8.67662 9.67404 8.54134 9.68902 8.38892 9.69867L8.37262 9.7404C8.55447 10.2354 8.62206 10.8166 8.37262 11.0422C7.33183 11.9839 6.73322 12.3895 6.23536 12.7269C5.70306 13.0876 5.28595 13.3702 4.56673 14.1465C4.33368 14.3324 4.11077 14.5372 3.89865 14.7565C3.42209 15.2195 2.89541 15.7924 2.34596 16.4359C2.39433 16.4933 2.44333 16.5502 2.49296 16.6066L2.51027 16.6262C2.54042 16.574 2.57105 16.5219 2.60215 16.4701C3.1132 15.833 3.63345 15.2103 4.14285 14.6213C4.28406 14.458 4.41467 14.3115 4.53663 14.1791C4.70297 14.0414 4.85957 13.9236 5.00477 13.828C7.81951 11.9762 10.5818 12.079 11.305 13.3804C11.3618 13.4828 11.4063 13.6003 11.4386 13.731C11.597 14.3723 11.4627 15.3309 11.0682 16.3728C10.6173 17.5634 9.82668 18.8628 8.74474 19.922C9.15592 19.9735 9.57486 20 10 20C10.2738 20 10.545 19.989 10.8132 19.9674C11.7581 19.1236 12.5472 18.0942 13.1674 16.6283C13.1754 16.6211 13.1837 16.6083 13.1922 16.5902C13.3468 16.2619 13.5738 14.2047 13.6898 12.5261C13.7653 11.4321 13.7938 10.4988 13.7243 10.3098C13.7794 9.02227 13.5793 8.00176 13.1152 6.98332C12.7984 7.98394 11.7799 8.73457 10.5774 8.94729C10.351 8.98733 10.1181 9.00831 9.88217 9.00831C9.47638 9.00831 9.08837 8.94188 8.73169 8.82082C8.6869 8.80562 8.64261 8.78956 8.59883 8.77266ZM10.1261 5.26657C10.1261 5.26151 10.1259 5.25649 10.1254 5.25155L10.0724 5.38738C10.1054 5.3576 10.1261 5.31451 10.1261 5.26657Z" fill="#87AF37"/>
<path d="M11.305 13.3804C10.5818 12.079 7.81951 11.9762 5.00477 13.828C4.85957 13.9236 4.70297 14.0414 4.53663 14.1791C4.41467 14.3115 4.28406 14.458 4.14285 14.6213C3.63345 15.2103 3.1132 15.833 2.60215 16.4701C2.57105 16.5219 2.54042 16.574 2.51027 16.6262C3.42175 17.6557 4.54222 18.4959 5.80523 19.0803C7.03097 18.3484 8.26707 17.5065 9.10986 16.6545C10.0844 16.0132 10.4587 14.729 10.7011 13.8973C10.9037 13.2019 11.0142 12.8229 11.3063 13.4008C11.3586 13.5043 11.4028 13.6146 11.4386 13.731C11.4063 13.6003 11.3618 13.4828 11.305 13.3804Z" fill="#ACE42D"/>
<path fill-rule="evenodd" clip-rule="evenodd" d="M6.76746 5.39566C6.76573 5.40651 6.76405 5.41742 6.76241 5.42837C6.7613 5.41978 6.76046 5.4108 6.75989 5.40146L6.76746 5.39566ZM8.59883 8.77266C8.62627 8.80032 8.6533 8.82648 8.6793 8.85165L8.68994 8.86194C8.69622 8.86803 8.70243 8.87406 8.70857 8.88004L8.73169 8.82082C8.6869 8.80562 8.64261 8.78956 8.59883 8.77266ZM13.1674 16.6283L13.1922 16.5902C13.1837 16.6083 13.1754 16.6211 13.1674 16.6283ZM11.0682 16.3728C11.5596 15.3547 11.6536 14.432 11.4386 13.731C11.597 14.3723 11.4627 15.3309 11.0682 16.3728ZM3.89865 14.7565C4.11077 14.5372 4.33368 14.3324 4.56673 14.1465C4.70901 14.033 4.85507 13.9265 5.00477 13.828C4.85957 13.9236 4.70297 14.0414 4.53663 14.1791C4.41467 14.3115 4.28406 14.458 4.14285 14.6213C3.63345 15.2103 3.1132 15.833 2.60215 16.4701C2.57105 16.5219 2.54042 16.574 2.51027 16.6262L2.49296 16.6066C2.44333 16.5502 2.39433 16.4933 2.34596 16.4359C2.89541 15.7924 3.42209 15.2195 3.89865 14.7565ZM10.1261 5.26657C10.1261 5.26151 10.1259 5.25649 10.1254 5.25155L10.0724 5.38738C10.1054 5.3576 10.1261 5.31451 10.1261 5.26657Z" fill="#ACE42D"/>
<path d="M5.80523 19.0803C6.50626 19.4047 7.25119 19.6503 8.02868 19.8058C9.56617 18.6553 10.5436 17.4597 11.0682 16.3728C11.4627 15.3309 11.597 14.3723 11.4386 13.731C11.4028 13.6146 11.3586 13.5043 11.3063 13.4008C11.0142 12.8229 10.9037 13.2019 10.7011 13.8973C10.4587 14.729 10.0844 16.0132 9.10986 16.6545C8.26707 17.5065 7.03097 18.3484 5.80523 19.0803Z" fill="#96C930"/>
<path fill-rule="evenodd" clip-rule="evenodd" d="M6.76746 5.39566C6.76573 5.40651 6.76405 5.41742 6.76241 5.42837C6.7613 5.41978 6.76046 5.4108 6.75989 5.40146L6.76746 5.39566ZM8.59883 8.77266C8.62627 8.80032 8.6533 8.82648 8.6793 8.85165L8.68994 8.86194C8.69622 8.86803 8.70243 8.87406 8.70857 8.88004L8.73169 8.82082C8.6869 8.80562 8.64261 8.78956 8.59883 8.77266ZM13.1674 16.6283L13.1922 16.5902C13.1837 16.6083 13.1754 16.6211 13.1674 16.6283ZM11.0682 16.3728C11.5596 15.3547 11.6536 14.432 11.4386 13.731C11.597 14.3723 11.4627 15.3309 11.0682 16.3728ZM3.89865 14.7565C4.11077 14.5372 4.33368 14.3324 4.56673 14.1465C4.70901 14.033 4.85507 13.9265 5.00477 13.828C4.85957 13.9236 4.70297 14.0414 4.53663 14.1791C4.33703 14.3443 4.12342 14.5382 3.89865 14.7565ZM2.51027 16.6262L2.49296 16.6066C2.5293 16.561 2.5657 16.5155 2.60215 16.4701C2.57105 16.5219 2.54042 16.574 2.51027 16.6262ZM10.1261 5.26657C10.1261 5.26151 10.1259 5.25649 10.1254 5.25155L10.0724 5.38738C10.1054 5.3576 10.1261 5.31451 10.1261 5.26657Z" fill="#96C930"/>
<path fill-rule="evenodd" clip-rule="evenodd" d="M6.76241 5.42837C6.76405 5.41742 6.76573 5.40651 6.76746 5.39566L6.75989 5.40146C6.76046 5.4108 6.7613 5.41978 6.76241 5.42837ZM8.6793 8.85165C8.6533 8.82648 8.62627 8.80032 8.59883 8.77266C8.64261 8.78956 8.6869 8.80562 8.73169 8.82082L8.70857 8.88004C8.70243 8.87406 8.69622 8.86803 8.68994 8.86194L8.6793 8.85165ZM13.1674 16.6283L13.1922 16.5902C13.1837 16.6083 13.1754 16.6211 13.1674 16.6283ZM4.56673 14.1465C4.33368 14.3324 4.11077 14.5372 3.89865 14.7565C4.12342 14.5382 4.33703 14.3443 4.53663 14.1791C4.70297 14.0414 4.85957 13.9236 5.00477 13.828C4.85507 13.9265 4.70901 14.033 4.56673 14.1465ZM2.49296 16.6066L2.51027 16.6262C2.54042 16.574 2.57105 16.5219 2.60215 16.4701C2.5657 16.5155 2.5293 16.561 2.49296 16.6066ZM10.1254 5.25155C10.1259 5.25649 10.1261 5.26151 10.1261 5.26657C10.1261 5.31451 10.1054 5.3576 10.0724 5.38738L10.1254 5.25155Z" fill="#496F14"/>
<path d="M15.368 12.9945C15.3199 10.553 15.0347 8.72949 14.6131 7.36983C14.5102 7.05779 14.4 6.76933 14.2838 6.50276C14.2495 6.51483 14.2132 6.52313 14.1752 6.52719C13.9104 6.55547 13.5709 6.5418 13.2106 6.49466C13.1974 6.66297 13.165 6.82622 13.1152 6.98332C13.5793 8.00176 13.7794 9.02227 13.7243 10.3098C13.7938 10.4988 13.7653 11.4321 13.6898 12.5261L15.368 12.9945Z" fill="#496F14"/>
<path d="M15.3578 13.261C15.3645 13.1614 15.368 13.072 15.368 12.9945L13.6898 12.5261C13.5738 14.2047 13.3468 16.2619 13.1922 16.5902L15.3578 13.261Z" fill="#496F14"/>
<path d="M13.8933 19.2138C13.9955 19.0265 14.0819 18.8487 14.1479 18.6884C14.6755 17.4071 15.273 14.519 15.3578 13.261L13.1922 16.5902C13.1837 16.6083 13.1754 16.6211 13.1674 16.6283C12.5472 18.0942 11.7581 19.1236 10.8132 19.9674C11.898 19.8801 12.9339 19.6197 13.8933 19.2138Z" fill="#496F14"/>
<path d="M14.2179 18.8317C14.7872 17.4489 15.438 14.1949 15.438 13.1378L15.3578 13.261C15.273 14.519 14.6755 17.4071 14.1479 18.6884C14.0819 18.8487 13.9955 19.0265 13.8933 19.2138C13.9561 19.1872 14.0185 19.1601 14.0806 19.1323C14.1328 19.0271 14.1789 18.9264 14.2179 18.8317Z" fill="#496F14"/>
<path d="M15.438 13.1378C15.3887 10.6404 15.0743 8.76834 14.6131 7.36983C15.0347 8.72949 15.3199 10.553 15.368 12.9945C15.368 13.072 15.3645 13.1614 15.3578 13.261L15.438 13.1378Z" fill="#4A6F14"/>
<path d="M9.71935 4.77852C9.22518 4.77852 8.82458 5.17912 8.82458 5.67329C8.82458 6.13172 9.16935 6.50964 9.61375 6.56188L10.0724 5.38738C10.0435 5.41341 10.0053 5.42926 9.9634 5.42926C9.87355 5.42926 9.80072 5.35642 9.80072 5.26657C9.80072 5.17672 9.87355 5.10389 9.9634 5.10389C10.0482 5.10389 10.1178 5.16874 10.1254 5.25155L10.2438 4.94828C10.0965 4.84149 9.91525 4.77852 9.71935 4.77852Z" fill="black"/>
<path d="M9.71935 6.56805C10.2135 6.56805 10.6141 6.16745 10.6141 5.67329C10.6141 5.37503 10.4682 5.11086 10.2438 4.94828L10.1254 5.25155C10.1259 5.25649 10.1261 5.26151 10.1261 5.26657C10.1261 5.31451 10.1054 5.3576 10.0724 5.38738L9.61375 6.56188C9.64838 6.56596 9.68362 6.56805 9.71935 6.56805Z" fill="black"/>
<path fill-rule="evenodd" clip-rule="evenodd" d="M6.76241 5.42837C6.76405 5.41742 6.76573 5.40651 6.76746 5.39566L6.75989 5.40146C6.76046 5.4108 6.7613 5.41978 6.76241 5.42837ZM8.6793 8.85165C8.6533 8.82648 8.62627 8.80032 8.59883 8.77266C8.64261 8.78956 8.6869 8.80562 8.73169 8.82082L8.70857 8.88004C8.70243 8.87406 8.69622 8.86803 8.68994 8.86194L8.6793 8.85165ZM13.1674 16.6283L13.1922 16.5902C13.1837 16.6083 13.1754 16.6211 13.1674 16.6283ZM4.56673 14.1465C4.33368 14.3324 4.11077 14.5372 3.89865 14.7565C4.12342 14.5382 4.33703 14.3443 4.53663 14.1791C4.70297 14.0414 4.85957 13.9236 5.00477 13.828C4.85507 13.9265 4.70901 14.033 4.56673 14.1465ZM2.60215 16.4701C2.57105 16.5219 2.54042 16.574 2.51027 16.6262L2.49296 16.6066C2.5293 16.561 2.5657 16.5155 2.60215 16.4701ZM10.1254 5.25155C10.1259 5.25649 10.1261 5.26151 10.1261 5.26657C10.1261 5.31451 10.1054 5.3576 10.0724 5.38738L10.1254 5.25155Z" fill="black"/>
<path d="M8.02868 19.8058C8.26448 19.8529 8.50327 19.8917 8.74474 19.922C9.82668 18.8628 10.6173 17.5634 11.0682 16.3728C10.5436 17.4597 9.56617 18.6553 8.02868 19.8058Z" fill="#B30A02"/>
<path fill-rule="evenodd" clip-rule="evenodd" d="M6.76241 5.42837C6.76405 5.41742 6.76573 5.40651 6.76746 5.39566L6.75989 5.40146C6.76046 5.4108 6.7613 5.41978 6.76241 5.42837ZM8.6793 8.85165C8.6533 8.82648 8.62627 8.80032 8.59883 8.77266C8.64261 8.78956 8.6869 8.80562 8.73169 8.82082L8.70857 8.88004C8.70243 8.87406 8.69622 8.86803 8.68994 8.86194L8.6793 8.85165ZM4.56673 14.1465C4.33368 14.3324 4.11077 14.5372 3.89865 14.7565C3.42209 15.2195 2.89541 15.7924 2.34596 16.4359C2.39433 16.4933 2.44333 16.5502 2.49296 16.6066L2.51027 16.6262C2.54042 16.574 2.57105 16.5219 2.60215 16.4701C3.1132 15.833 3.63345 15.2103 4.14285 14.6213C4.28406 14.458 4.41467 14.3115 4.53663 14.1791C4.70297 14.0414 4.85957 13.9236 5.00477 13.828C4.85507 13.9265 4.70901 14.033 4.56673 14.1465ZM13.1674 16.6283C13.1754 16.6211 13.1837 16.6083 13.1922 16.5902L13.1674 16.6283ZM10.1254 5.25155C10.1259 5.25649 10.1261 5.26151 10.1261 5.26657C10.1261 5.31451 10.1054 5.3576 10.0724 5.38738L10.1254 5.25155Z" fill="#B30A02"/>
<path fill-rule="evenodd" clip-rule="evenodd" d="M13.1674 16.6283C13.1754 16.6211 13.1837 16.6083 13.1922 16.5902L13.1674 16.6283ZM4.53663 14.1791C4.54672 14.1681 4.55675 14.1573 4.56673 14.1465C4.70901 14.033 4.85507 13.9265 5.00477 13.828C4.85957 13.9236 4.70297 14.0414 4.53663 14.1791ZM8.46201 4.43921C8.46617 4.47863 8.46891 4.51916 8.47068 4.56048C8.47068 4.78439 8.14236 5.39578 7.82819 5.71579C7.54433 5.46916 7.04027 5.18385 6.82929 5.34793C6.80932 5.36346 6.78868 5.37936 6.76746 5.39566C6.76573 5.40651 6.76405 5.41742 6.76241 5.42837C6.7613 5.41978 6.76046 5.4108 6.75989 5.40146C6.74046 5.0836 7.03071 4.34559 7.44614 4.03039C7.45645 4.03936 7.467 4.04825 7.47778 4.05705C7.73253 4.26495 8.11261 4.42254 8.34124 4.44285C8.37849 4.44615 8.4188 4.44451 8.46201 4.43921Z" fill="#CA461C"/>
<path d="M11.1011 7.03993C11.1401 6.959 11.2374 6.92505 11.3183 6.96409L12.0509 7.31752C12.1318 7.35656 12.1658 7.45381 12.1267 7.53474L11.9147 7.97431C11.8756 8.05523 11.7784 8.08919 11.6975 8.05015L10.9648 7.69671C10.8839 7.65767 10.85 7.56042 10.889 7.4795L11.1011 7.03993Z" fill="#F4E849"/>
<path fill-rule="evenodd" clip-rule="evenodd" d="M8.70411 8.88004C9.06079 9.0011 9.47638 9.00831 9.88217 9.00831C10.1181 9.00831 10.351 8.98733 10.5774 8.94729C11.7799 8.73457 12.7984 7.98394 13.1152 6.98332C13.165 6.82622 13.1974 6.66297 13.2106 6.49466C13.215 6.43833 13.2172 6.38144 13.2172 6.32402C13.2165 6.30725 13.2157 6.29054 13.2148 6.27388L12.9587 6.45683C12.9196 6.45021 12.8803 6.44323 12.8411 6.43591C12.3932 6.35234 11.9412 6.22354 11.5815 6.06472C11.5339 6.04367 11.4878 6.02209 11.4436 6.00002C11.2458 5.90128 11.1341 5.69973 11.0849 5.48418C10.9953 5.09095 10.8303 4.71012 10.432 4.46638L10.8029 3.51654L10.8183 3.47706C11.0761 3.50161 11.3562 3.55396 11.6464 3.65256C11.8008 3.70502 11.9581 3.77057 12.1165 3.85199C12.8762 4.28423 13.665 5.08297 14.2838 6.50276C14.2848 6.50242 14.2857 6.50207 14.2867 6.50172C14.2879 6.50131 14.289 6.50089 14.2902 6.50047C14.2932 6.49936 14.2962 6.49823 14.2991 6.49707C13.6863 5.02327 12.8886 4.24898 12.1165 3.85199C11.6174 3.56806 11.1308 3.44228 10.7131 3.40249L10.7292 3.42298C10.383 3.37938 9.9936 3.36923 9.55681 3.39571C8.73806 3.48343 8.14005 3.64474 7.70989 3.89852C7.61792 3.9209 7.52951 3.96713 7.44614 4.03039C7.45645 4.03936 7.467 4.04825 7.47778 4.05705C7.73253 4.26495 8.11261 4.42254 8.34124 4.44285C8.37849 4.44615 8.4188 4.44451 8.46201 4.43921C8.46617 4.47863 8.46891 4.51916 8.47068 4.56048C8.47068 4.78439 8.14236 5.39578 7.82819 5.71579C7.86653 5.74911 7.90086 5.78172 7.9299 5.81242C7.99369 5.87985 7.97171 6.03649 7.94982 6.19251C7.93609 6.29036 7.92239 6.38796 7.92991 6.46316C7.95783 6.74236 8.08191 7.76959 8.25528 8.25269C8.34029 8.48956 8.47388 8.6467 8.59884 8.77266C8.63023 8.80389 8.65932 8.86484 8.70411 8.88004ZM6.76746 5.39566L6.75989 5.40146C6.76046 5.4108 6.7613 5.41978 6.76241 5.42837C6.76405 5.41742 6.76573 5.40651 6.76746 5.39566ZM13.1922 16.5902L13.1674 16.6283C13.1754 16.6211 13.1837 16.6083 13.1922 16.5902ZM5.00477 13.828C4.85507 13.9265 4.70901 14.033 4.56673 14.1465C4.33368 14.3324 4.11077 14.5372 3.89865 14.7565C4.12342 14.5382 4.33703 14.3443 4.53663 14.1791C4.70297 14.0414 4.85957 13.9236 5.00477 13.828ZM2.60215 16.4701C2.5657 16.5155 2.5293 16.561 2.49296 16.6066L2.51027 16.6262C2.54042 16.574 2.57105 16.5219 2.60215 16.4701ZM9.61375 6.56188C9.16935 6.50964 8.82458 6.13172 8.82458 5.67329C8.82458 5.17912 9.22518 4.77852 9.71935 4.77852C9.91525 4.77852 10.0965 4.84149 10.2438 4.94828C10.4682 5.11086 10.6141 5.37503 10.6141 5.67329C10.6141 6.16745 10.2135 6.56805 9.71935 6.56805C9.68362 6.56805 9.64838 6.56596 9.61375 6.56188ZM10.0724 5.38738C10.1054 5.3576 10.1261 5.31451 10.1261 5.26657C10.1261 5.26151 10.1259 5.25649 10.1254 5.25155L10.0724 5.38738Z" fill="#F4E849"/>
<path d="M7.50943 5.88998C7.55817 5.96473 7.52052 6.07564 7.42534 6.13771C7.33015 6.19978 7.21347 6.1895 7.16473 6.11476C7.11599 6.04001 7.15364 5.9291 7.24882 5.86703C7.344 5.80496 7.46068 5.81523 7.50943 5.88998Z" fill="#4F4F4F"/>
<path d="M11.1011 7.03993C11.1401 6.959 11.2374 6.92505 11.3183 6.96409L11.6023 7.10108L11.8735 7.23195L12.0509 7.31752C12.1318 7.35656 12.1658 7.45381 12.1267 7.53474L11.9147 7.97431C11.8756 8.05523 11.7784 8.08919 11.6975 8.05015L11.3792 7.89661L10.9648 7.69671C10.8839 7.65767 10.85 7.56042 10.889 7.4795L11.1011 7.03993Z" fill="#4F4F4F"/>
<path d="M8.78153 9.65905C8.93432 9.63722 8.96394 9.3494 8.90602 9.14745C8.87851 9.05157 8.80224 8.97131 8.70857 8.88004L8.43055 9.59204L8.38892 9.69867C8.54134 9.68903 8.67662 9.67404 8.78153 9.65905Z" fill="#4F4F4F"/>
<path fill-rule="evenodd" clip-rule="evenodd" d="M13.1674 16.6283C13.1754 16.6211 13.1837 16.6083 13.1922 16.5902L13.1674 16.6283ZM3.89865 14.7565C4.11077 14.5372 4.33368 14.3324 4.56673 14.1465C4.70901 14.033 4.85507 13.9265 5.00477 13.828C4.85957 13.9236 4.70297 14.0414 4.53663 14.1791C4.33703 14.3443 4.12342 14.5382 3.89865 14.7565ZM2.51027 16.6262C2.54042 16.574 2.57105 16.5219 2.60215 16.4701C2.5657 16.5155 2.5293 16.561 2.49296 16.6066L2.51027 16.6262ZM11.3792 7.89661L11.6975 8.05015C11.7784 8.08919 11.8756 8.05523 11.9147 7.97431L12.1267 7.53474C12.1658 7.45381 12.1318 7.35656 12.0509 7.31752L11.8735 7.23195L11.6023 7.10108L11.3183 6.96409C11.2374 6.92505 11.1401 6.959 11.1011 7.03993L10.889 7.4795C10.85 7.56042 10.8839 7.65767 10.9648 7.69671L11.3792 7.89661ZM6.75989 5.40146L6.73377 5.42149C5.96744 6.00891 4.53118 7.10984 5.93449 10.2284C6.01865 10.4155 6.16968 10.4465 6.17848 10.1471C6.19454 9.60129 6.31537 9.24937 6.50395 9.04845C6.70302 9.67926 7.71403 9.74136 8.38892 9.69867L8.43055 9.59204L8.70857 8.88004C8.69897 8.87069 8.68919 8.86122 8.67926 8.85161C8.65327 8.82645 8.62626 8.8003 8.59884 8.77266C8.47388 8.6467 8.34029 8.48956 8.25528 8.25269C8.08191 7.76959 7.95783 6.74236 7.92991 6.46316C7.92239 6.38796 7.93609 6.29036 7.94982 6.19251C7.97171 6.03649 7.99369 5.87985 7.9299 5.81242C7.90086 5.78172 7.86653 5.74911 7.82819 5.71579C7.54433 5.46916 7.04027 5.18385 6.82929 5.34793C6.80932 5.36346 6.78868 5.37936 6.76746 5.39566L6.75989 5.40146ZM10.0724 5.38738C10.1054 5.3576 10.1261 5.31451 10.1261 5.26657C10.1261 5.26151 10.1259 5.25649 10.1254 5.25155L10.0724 5.38738Z" fill="#4F4F4F"/>
<path d="M6.0625 10.3125C6.125 8.8125 6.75 8.8125 8 7.625" stroke="#383737" stroke-width="0.176724" stroke-linecap="round"/>
<path d="M6.65009 8.86332C6.64364 8.81495 6.59919 8.78096 6.55082 8.78741C6.50245 8.79386 6.46846 8.83831 6.47491 8.88668L6.65009 8.86332ZM8.76453 9.64966C8.81267 9.64164 8.84518 9.59611 8.83716 9.54797C8.82914 9.49984 8.78361 9.46732 8.73547 9.47534L8.76453 9.64966ZM6.47491 8.88668C6.51024 9.1516 6.6576 9.337 6.85754 9.4617C7.05445 9.5845 7.30304 9.64937 7.55119 9.68139C8.04794 9.74548 8.57331 9.68153 8.76453 9.64966L8.73547 9.47534C8.55169 9.50597 8.04581 9.56702 7.57381 9.50612C7.33759 9.47564 7.11742 9.4155 6.95106 9.31174C6.78771 9.20987 6.67726 9.06715 6.65009 8.86332L6.47491 8.88668Z" fill="#383737"/>
<path d="M11.552 5.75C11.6469 6.39646 11.671 6.84998 11.552 7.51724M11.552 7.51724L13.4076 6.19181M11.552 7.51724C11.3904 8.12315 10.8964 8.76599 10.3149 9.30226M8.625 10.375C9.15265 10.2791 9.62431 9.93908 10.3149 9.30226M10.3149 9.30226C9.96341 9.91743 9.77266 10.2623 9.60799 10.875" stroke="#383838" stroke-width="0.530173" stroke-linecap="round"/>
<rect x="11.1406" y="6.89893" width="1.23707" height="0.883621" rx="0.176724" transform="rotate(25.7538 11.1406 6.89893)" fill="#1F1F1F"/>
<path d="M12.6893 1.60616C10.7372 0.792735 7.40213 1.52482 7.21547 3.61646C7.20277 3.75869 7.2997 3.90296 7.44614 4.03039C7.52951 3.96713 7.61792 3.9209 7.70989 3.89852C8.14005 3.64474 8.73806 3.48343 9.55681 3.39571C9.9936 3.36923 10.383 3.37938 10.7292 3.42298L10.7131 3.40249C11.1308 3.44228 11.6174 3.56806 12.1165 3.85199C12.8886 4.24898 13.6863 5.02327 14.2991 6.49707C14.4652 6.43218 14.5834 6.2781 14.6222 6.09431C14.9359 4.61137 14.4173 2.32616 12.6893 1.60616Z" fill="#3A85F4"/>
<path fill-rule="evenodd" clip-rule="evenodd" d="M12.1165 3.85199C12.8886 4.24898 13.6863 5.02327 14.2991 6.49707C14.2962 6.49823 14.2932 6.49936 14.2902 6.50047C14.289 6.50089 14.2879 6.50131 14.2867 6.50172C14.2857 6.50207 14.2848 6.50242 14.2838 6.50276C14.2495 6.51483 14.2132 6.52313 14.1752 6.52719C13.9104 6.55547 13.5709 6.5418 13.2106 6.49466C13.1275 6.48379 13.0433 6.47115 12.9587 6.45683C12.9196 6.45021 12.8803 6.44323 12.8411 6.43591C12.3932 6.35234 11.9412 6.22354 11.5815 6.06472C11.5339 6.04367 11.4878 6.02209 11.4436 6.00002C11.2458 5.90128 11.1341 5.69973 11.0849 5.48418C10.9953 5.09095 10.8303 4.71012 10.432 4.46638C10.3758 4.43201 10.315 4.40036 10.2491 4.37179C9.67664 4.12364 9.17691 4.25946 8.79725 4.36265C8.67183 4.39674 8.55952 4.42726 8.46201 4.43921C8.4188 4.44451 8.37849 4.44615 8.34124 4.44285C8.11261 4.42254 7.73253 4.26495 7.47778 4.05705C7.467 4.04825 7.45645 4.03936 7.44614 4.03039C7.52951 3.96713 7.61792 3.9209 7.70989 3.89852C8.14005 3.64474 8.73806 3.48343 9.55681 3.39571C9.9936 3.36923 10.383 3.37938 10.7292 3.42298L10.7131 3.40249C11.1308 3.44228 11.6174 3.56806 12.1165 3.85199ZM6.75989 5.40146C6.76046 5.4108 6.7613 5.41978 6.76241 5.42837C6.76405 5.41742 6.76573 5.40651 6.76746 5.39566L6.75989 5.40146ZM13.1922 16.5902L13.1674 16.6283C13.1754 16.6211 13.1837 16.6083 13.1922 16.5902ZM4.56673 14.1465C4.70901 14.033 4.85507 13.9265 5.00477 13.828C4.85957 13.9236 4.70297 14.0414 4.53663 14.1791C4.33703 14.3443 4.12342 14.5382 3.89865 14.7565C4.11077 14.5372 4.33368 14.3324 4.56673 14.1465ZM2.60215 16.4701C2.5657 16.5155 2.5293 16.561 2.49296 16.6066L2.51027 16.6262C2.54042 16.574 2.57105 16.5219 2.60215 16.4701Z" fill="#3A85F4"/>
<path d="M8.24742 2.55016C8.17153 2.62062 8.16714 2.73926 8.2376 2.81514C8.30806 2.89103 8.4267 2.89542 8.50258 2.82496L8.24742 2.55016ZM12.2221 2.41435C12.3129 2.46425 12.4269 2.43115 12.4768 2.34042C12.5267 2.24968 12.4936 2.13567 12.4029 2.08577L12.2221 2.41435ZM8.50258 2.82496C8.90479 2.45148 9.53704 2.18228 10.2274 2.09223C10.9164 2.00236 11.6398 2.09407 12.2221 2.41435L12.4029 2.08577C11.7352 1.71854 10.9274 1.62275 10.1789 1.72038C9.43171 1.81784 8.72021 2.11114 8.24742 2.55016L8.50258 2.82496Z" fill="#0043A5"/>
<path d="M12.9512 2.51625C12.8566 2.47419 12.7458 2.51681 12.7037 2.61143C12.6617 2.70606 12.7043 2.81687 12.7989 2.85892L12.9512 2.51625ZM13.6355 3.9368C13.6696 4.03458 13.7765 4.08622 13.8743 4.05214C13.9721 4.01806 14.0237 3.91116 13.9896 3.81337L13.6355 3.9368ZM12.7989 2.85892C13.2854 3.07516 13.4743 3.47433 13.6355 3.9368L13.9896 3.81337C13.8227 3.33458 13.5897 2.80001 12.9512 2.51625L12.7989 2.85892Z" fill="#0043A5"/>
</svg>
