<svg width="20" height="20" viewBox="0 0 20 20" fill="none" xmlns="http://www.w3.org/2000/svg">
<circle cx="10" cy="10" r="9.9" fill="#222222" stroke="black" stroke-width="0.2"/>
<path d="M9.54823 3.95084C8.14571 4.10833 7.12617 5.03393 6.82857 6.41884C6.73451 6.84981 6.71257 7.29187 6.76731 7.62444C6.92274 8.58044 7.65349 10.0179 8.8656 11.7464C9.09314 12.0701 9.97932 13.2451 9.99463 13.2451C10.0034 13.2451 10.1872 13.0111 10.4038 12.7266C12.2568 10.2827 13.2567 8.3705 13.2567 7.25895C13.2567 6.34661 12.9416 5.48238 12.3946 4.89599C11.723 4.17404 10.6706 3.82399 9.54823 3.95084ZM10.4168 6.08844C10.8171 6.22193 11.1344 6.57198 11.2439 7.00078C11.3577 7.44055 11.2307 7.88032 10.896 8.21507C10.6357 8.47541 10.3643 8.58924 9.9968 8.59141C9.24857 8.59358 8.66869 7.97884 8.71029 7.2305C8.76057 6.37724 9.59852 5.81713 10.4168 6.08844Z" fill="white"/>
<path d="M9.88713 6.72526C9.69673 6.76469 9.53925 6.88938 9.45833 7.06435C9.32051 7.35532 9.47148 7.7295 9.77559 7.85635C9.90462 7.9111 10.1191 7.9023 10.2503 7.83441C10.4472 7.73372 10.5872 7.51498 10.5872 7.30492C10.5872 6.95281 10.2285 6.65303 9.88713 6.72526Z" fill="white"/>
<path d="M5.33638 12.8404C4.82438 13.8096 4.40426 14.6126 4.39992 14.6236C4.39329 14.6389 6.29466 14.6455 9.99661 14.6455H15.5999L15.5934 14.5799C15.5869 14.5165 13.784 11.0792 13.7556 11.0792C13.7446 11.0792 13.1692 11.379 13.1517 11.3965C13.1495 11.3986 13.4471 11.9697 13.8147 12.6633C14.1822 13.3569 14.482 13.9301 14.482 13.9345C14.482 13.941 12.4735 13.9455 10.0187 13.9455C7.56381 13.9455 5.55535 13.9412 5.55535 13.9367C5.55535 13.9302 5.85512 13.3591 6.22266 12.6633C6.59021 11.9697 6.88781 11.3988 6.88563 11.3943C6.86815 11.379 6.29706 11.0792 6.28175 11.0792C6.27283 11.079 5.84838 11.8711 5.33638 12.8404Z" fill="white"/>
</svg>
